<svg id="Layer_1" data-name="Layer 1" xmlns="http://www.w3.org/2000/svg" viewBox="0 0 504.98 486.92"><defs><style>.cls-1{fill:#fff;}.cls-2{fill:#405daa;}.cls-3{fill:#414042;}</style></defs><title>facebook-thumb</title><path class="cls-1" d="M461.28,322.57l-14.54,4.53,9.16,12.16a31.64,31.64,0,0,1-20.06,50.31L421.29,392l6.81,13.09a31.32,31.32,0,0,1,3.56,14.55A31.71,31.71,0,0,1,402,451.25L219,451.32c-.54,0-22.67-.43-38.89-14.23A42.83,42.83,0,0,0,170,430.44l-3.93-1.79V259.54l19.08-16.31,64.38-119.36a53.15,53.15,0,0,0,7.54-31.59l-5.09-67a29.59,29.59,0,0,1,14.61-3.88c27.8,0,51.62,44.42,51.62,80.77a100.93,100.93,0,0,1-1.14,15.07l-11.19,72.49H445.45A34.35,34.35,0,0,1,469.6,200a30.56,30.56,0,0,1,9.22,21.76,31.49,31.49,0,0,1-12.61,25l-13,9.84,14.17,8a31.74,31.74,0,0,1-6.12,57.92Z"/><path class="cls-2" d="M11.42,226.28a.7.7,0,0,0-.7.6V475.59a.7.7,0,0,0,.7.6H154.66a.69.69,0,0,0,.7-.6V226.88a.69.69,0,0,0-.7-.6Z"/><path class="cls-3" d="M505,292.26a53.25,53.25,0,0,0-16-38,52.71,52.71,0,0,0,11.31-32.39,51.89,51.89,0,0,0-15.45-37,55.94,55.94,0,0,0-39.37-16.54H330.9l7.37-47.78a120.76,120.76,0,0,0,1.39-18.33C339.66,54.94,307.75,0,266.6,0A51.06,51.06,0,0,0,234,11.83l-4.24,3.53,6,78.54a31.4,31.4,0,0,1-.79,9.88,31.77,31.77,0,0,1-3.8,9.15l-62.92,116.6-2.36,2A22.06,22.06,0,0,0,144,212.71H22a22.07,22.07,0,0,0-22,22V464.88a22.07,22.07,0,0,0,22,22H144a22.06,22.06,0,0,0,22-22v-11.6l.17.14c22.49,19.12,51.53,19.34,52.76,19.34h0l183.3-.07h.58a53.16,53.16,0,0,0,48.73-65.53,53.16,53.16,0,0,0,28-69.49A52.91,52.91,0,0,0,505,292.26ZM144.64,464.88a.64.64,0,0,1-.6.59H22a.64.64,0,0,1-.6-.59V234.75a.64.64,0,0,1,.6-.59H144a.64.64,0,0,1,.6.59V464.88ZM461.28,322.57l-14.54,4.53,9.16,12.16a31.64,31.64,0,0,1-20.06,50.31L421.29,392l6.81,13.09a31.32,31.32,0,0,1,3.56,14.55A31.71,31.71,0,0,1,402,451.25L219,451.32c-.54,0-22.67-.43-38.89-14.23A42.83,42.83,0,0,0,170,430.44l-3.93-1.79V259.54l19.08-16.31,64.38-119.36a53.15,53.15,0,0,0,7.54-31.59l-5.09-67a29.59,29.59,0,0,1,14.61-3.88c27.8,0,51.62,44.42,51.62,80.77a100.93,100.93,0,0,1-1.14,15.07l-11.19,72.49H445.45A34.35,34.35,0,0,1,469.6,200a30.56,30.56,0,0,1,9.22,21.76,31.49,31.49,0,0,1-12.61,25l-13,9.84,14.17,8a31.74,31.74,0,0,1-6.12,57.92Z"/></svg>